<?xml version="1.0" standalone="no"?>
<!DOCTYPE svg PUBLIC "-//W3C//DTD SVG 20010904//EN"
 "http://www.w3.org/TR/2001/REC-SVG-20010904/DTD/svg10.dtd">
<svg version="1.0" xmlns="http://www.w3.org/2000/svg"
 width="2048.000000pt" height="2048.000000pt" viewBox="0 0 2048.000000 2048.000000"
 preserveAspectRatio="xMidYMid meet">

<g transform="translate(0.000000,2048.000000) scale(0.100000,-0.100000)"
fill="#000000" stroke="none">
<path d="M0 10240 l0 -10240 10240 0 10240 0 0 10240 0 10240 -10240 0 -10240
0 0 -10240z m10271 4793 c23 -38 163 -251 311 -474 l268 -406 0 -2937 c0
-2171 3 -2935 11 -2930 6 4 97 122 202 263 105 141 247 333 317 426 70 94 252
339 406 545 154 206 346 465 427 575 81 110 204 277 273 370 69 94 329 447
577 785 248 338 527 719 620 845 94 127 205 277 247 335 42 58 151 206 241
330 91 124 180 246 199 273 l33 47 644 0 c513 0 643 -3 637 -12 -15 -25 -159
-222 -735 -1008 -152 -206 -324 -442 -384 -525 -142 -197 -200 -277 -345 -475
-66 -91 -149 -203 -183 -250 -34 -47 -128 -174 -209 -283 l-147 -198 102 -149
c98 -143 163 -238 616 -895 110 -159 269 -391 353 -515 84 -123 223 -326 308
-450 86 -124 225 -326 310 -450 84 -124 191 -278 237 -342 l83 -118 -698 0
-697 0 -108 163 c-60 89 -155 230 -212 312 -113 164 -540 789 -818 1198 l-175
257 -133 -182 c-277 -380 -469 -643 -689 -938 -229 -309 -537 -728 -579 -787
l-22 -33 -355 0 -354 0 0 -554 0 -554 -201 -288 c-110 -159 -248 -360 -307
-446 -59 -86 -109 -157 -112 -158 -3 0 -5 2183 -6 4850 0 2668 0 4850 2 4850
1 0 21 -30 45 -67z m-3648 -2068 c412 -512 1423 -1778 1542 -1930 82 -104 262
-332 400 -505 274 -343 605 -761 828 -1046 l142 -182 3 1879 c1 1033 5 1879
10 1879 4 -1 98 -114 210 -253 l203 -252 -3 -2575 -3 -2575 -220 0 -220 0
-130 166 c-71 92 -260 330 -419 530 -160 200 -459 578 -665 839 -334 422
-1222 1534 -1776 2223 l-200 249 -3 -2001 -2 -2001 -660 0 -660 0 0 2830 0
2830 418 2 c229 2 575 3 767 3 l350 0 88 -110z m5154 -25 c354 -509 834 -1223
830 -1235 -3 -7 -80 -112 -170 -232 -183 -244 -388 -522 -479 -650 -44 -63
-63 -82 -71 -74 -13 13 -115 159 -449 645 -128 187 -254 371 -280 408 l-48 70
0 597 c0 329 3 601 7 604 4 4 133 6 287 5 l279 -3 94 -135z m2281 94 c-18 -26
-93 -128 -166 -228 -73 -99 -185 -253 -249 -341 -64 -88 -198 -270 -298 -405
-100 -135 -210 -285 -246 -333 -141 -194 -910 -1237 -1082 -1467 l-182 -245
-3 143 -3 143 196 262 c482 647 870 1173 1333 1807 75 102 213 289 307 415 94
127 181 245 194 263 l22 32 105 0 105 0 -33 -46z"/>
</g>
</svg>
